<mxfile host="app.diagrams.net" agent="Mozilla/5.0 (Windows NT 10.0; Win64; x64) AppleWebKit/537.36 (KHTML, like Gecko) Chrome/137.0.0.0 Safari/537.36" version="27.1.5">
  <diagram name="Page-1" id="2hZenk2TEhN1Myffawzd">
    <mxGraphModel dx="2404" dy="995" grid="1" gridSize="10" guides="1" tooltips="1" connect="1" arrows="1" fold="1" page="1" pageScale="1" pageWidth="827" pageHeight="1169" math="0" shadow="0">
      <root>
        <mxCell id="0" />
        <mxCell id="1" parent="0" />
        <mxCell id="gKnCj68wepEUVezHaxVO-4" value="&amp;lt;&amp;lt;IIngredientMeasure&amp;gt;&amp;gt;" style="swimlane;childLayout=stackLayout;horizontal=1;startSize=50;horizontalStack=0;rounded=1;fontSize=14;fontStyle=0;strokeWidth=2;resizeParent=0;resizeLast=1;shadow=0;dashed=0;align=center;arcSize=4;whiteSpace=wrap;html=1;" vertex="1" parent="1">
          <mxGeometry x="21" y="323" width="160" height="100" as="geometry" />
        </mxCell>
        <mxCell id="gKnCj68wepEUVezHaxVO-5" value="+Name:string&lt;br&gt;+Symbol:string&lt;br&gt;+Value:double" style="align=left;strokeColor=none;fillColor=none;spacingLeft=4;spacingRight=4;fontSize=12;verticalAlign=top;resizable=0;rotatable=0;part=1;html=1;whiteSpace=wrap;" vertex="1" parent="gKnCj68wepEUVezHaxVO-4">
          <mxGeometry y="50" width="160" height="50" as="geometry" />
        </mxCell>
        <mxCell id="gKnCj68wepEUVezHaxVO-39" style="edgeStyle=orthogonalEdgeStyle;rounded=0;orthogonalLoop=1;jettySize=auto;html=1;exitX=0.5;exitY=0;exitDx=0;exitDy=0;entryX=0.5;entryY=1;entryDx=0;entryDy=0;" edge="1" parent="1" source="gKnCj68wepEUVezHaxVO-7" target="gKnCj68wepEUVezHaxVO-5">
          <mxGeometry relative="1" as="geometry" />
        </mxCell>
        <mxCell id="gKnCj68wepEUVezHaxVO-52" style="edgeStyle=orthogonalEdgeStyle;rounded=0;orthogonalLoop=1;jettySize=auto;html=1;exitX=0;exitY=0.75;exitDx=0;exitDy=0;entryX=0.5;entryY=1;entryDx=0;entryDy=0;" edge="1" parent="1">
          <mxGeometry relative="1" as="geometry">
            <mxPoint x="21" y="562" as="sourcePoint" />
            <mxPoint x="-69" y="420" as="targetPoint" />
          </mxGeometry>
        </mxCell>
        <mxCell id="gKnCj68wepEUVezHaxVO-7" value="&amp;lt;&amp;lt;IVolumeUnit&amp;gt;&amp;gt;" style="swimlane;childLayout=stackLayout;horizontal=1;startSize=50;horizontalStack=0;rounded=1;fontSize=14;fontStyle=0;strokeWidth=2;resizeParent=0;resizeLast=1;shadow=0;dashed=0;align=center;arcSize=4;whiteSpace=wrap;html=1;" vertex="1" parent="1">
          <mxGeometry x="21" y="472" width="160" height="120" as="geometry" />
        </mxCell>
        <mxCell id="gKnCj68wepEUVezHaxVO-8" value="+Attribute1&#xa;+Attribute2&#xa;+Attribute3" style="align=left;strokeColor=none;fillColor=none;spacingLeft=4;spacingRight=4;fontSize=12;verticalAlign=top;resizable=0;rotatable=0;part=1;html=1;whiteSpace=wrap;" vertex="1" parent="gKnCj68wepEUVezHaxVO-7">
          <mxGeometry y="50" width="160" height="70" as="geometry" />
        </mxCell>
        <mxCell id="gKnCj68wepEUVezHaxVO-38" style="edgeStyle=orthogonalEdgeStyle;rounded=0;orthogonalLoop=1;jettySize=auto;html=1;exitX=0.5;exitY=0;exitDx=0;exitDy=0;" edge="1" parent="1" source="gKnCj68wepEUVezHaxVO-10" target="gKnCj68wepEUVezHaxVO-5">
          <mxGeometry relative="1" as="geometry" />
        </mxCell>
        <mxCell id="gKnCj68wepEUVezHaxVO-10" value="&amp;lt;&amp;lt;IMassUnit&amp;gt;&amp;gt;" style="swimlane;childLayout=stackLayout;horizontal=1;startSize=50;horizontalStack=0;rounded=1;fontSize=14;fontStyle=0;strokeWidth=2;resizeParent=0;resizeLast=1;shadow=0;dashed=0;align=center;arcSize=4;whiteSpace=wrap;html=1;" vertex="1" parent="1">
          <mxGeometry x="-262" y="473" width="160" height="120" as="geometry" />
        </mxCell>
        <mxCell id="gKnCj68wepEUVezHaxVO-11" value="+Attribute1&#xa;+Attribute2&#xa;+Attribute3" style="align=left;strokeColor=none;fillColor=none;spacingLeft=4;spacingRight=4;fontSize=12;verticalAlign=top;resizable=0;rotatable=0;part=1;html=1;whiteSpace=wrap;" vertex="1" parent="gKnCj68wepEUVezHaxVO-10">
          <mxGeometry y="50" width="160" height="70" as="geometry" />
        </mxCell>
        <mxCell id="gKnCj68wepEUVezHaxVO-40" style="edgeStyle=orthogonalEdgeStyle;rounded=0;orthogonalLoop=1;jettySize=auto;html=1;exitX=0.5;exitY=0;exitDx=0;exitDy=0;entryX=0.5;entryY=1;entryDx=0;entryDy=0;" edge="1" parent="1" source="gKnCj68wepEUVezHaxVO-12" target="gKnCj68wepEUVezHaxVO-5">
          <mxGeometry relative="1" as="geometry" />
        </mxCell>
        <mxCell id="gKnCj68wepEUVezHaxVO-12" value="&amp;lt;&amp;lt;ICountUnit&amp;gt;&amp;gt;" style="swimlane;childLayout=stackLayout;horizontal=1;startSize=50;horizontalStack=0;rounded=1;fontSize=14;fontStyle=0;strokeWidth=2;resizeParent=0;resizeLast=1;shadow=0;dashed=0;align=center;arcSize=4;whiteSpace=wrap;html=1;" vertex="1" parent="1">
          <mxGeometry x="301" y="472" width="160" height="120" as="geometry" />
        </mxCell>
        <mxCell id="gKnCj68wepEUVezHaxVO-13" value="+Attribute1&#xa;+Attribute2&#xa;+Attribute3" style="align=left;strokeColor=none;fillColor=none;spacingLeft=4;spacingRight=4;fontSize=12;verticalAlign=top;resizable=0;rotatable=0;part=1;html=1;whiteSpace=wrap;" vertex="1" parent="gKnCj68wepEUVezHaxVO-12">
          <mxGeometry y="50" width="160" height="70" as="geometry" />
        </mxCell>
        <mxCell id="gKnCj68wepEUVezHaxVO-42" style="edgeStyle=orthogonalEdgeStyle;rounded=0;orthogonalLoop=1;jettySize=auto;html=1;exitX=0.5;exitY=0;exitDx=0;exitDy=0;entryX=0.5;entryY=1;entryDx=0;entryDy=0;" edge="1" parent="1" source="gKnCj68wepEUVezHaxVO-22" target="gKnCj68wepEUVezHaxVO-11">
          <mxGeometry relative="1" as="geometry" />
        </mxCell>
        <mxCell id="gKnCj68wepEUVezHaxVO-22" value="Kilogram" style="swimlane;childLayout=stackLayout;horizontal=1;startSize=30;horizontalStack=0;rounded=1;fontSize=14;fontStyle=0;strokeWidth=2;resizeParent=0;resizeLast=1;shadow=0;dashed=0;align=center;arcSize=4;whiteSpace=wrap;html=1;" vertex="1" parent="1">
          <mxGeometry x="-172" y="633" width="110" height="70" as="geometry" />
        </mxCell>
        <mxCell id="gKnCj68wepEUVezHaxVO-41" style="edgeStyle=orthogonalEdgeStyle;rounded=0;orthogonalLoop=1;jettySize=auto;html=1;exitX=0.5;exitY=0;exitDx=0;exitDy=0;entryX=0.5;entryY=1;entryDx=0;entryDy=0;" edge="1" parent="1" source="gKnCj68wepEUVezHaxVO-23" target="gKnCj68wepEUVezHaxVO-11">
          <mxGeometry relative="1" as="geometry" />
        </mxCell>
        <mxCell id="gKnCj68wepEUVezHaxVO-53" style="edgeStyle=orthogonalEdgeStyle;rounded=0;orthogonalLoop=1;jettySize=auto;html=1;exitX=0;exitY=0.5;exitDx=0;exitDy=0;entryX=0.5;entryY=1;entryDx=0;entryDy=0;" edge="1" parent="1" source="gKnCj68wepEUVezHaxVO-23" target="gKnCj68wepEUVezHaxVO-37">
          <mxGeometry relative="1" as="geometry" />
        </mxCell>
        <mxCell id="gKnCj68wepEUVezHaxVO-23" value="Gram" style="swimlane;childLayout=stackLayout;horizontal=1;startSize=30;horizontalStack=0;rounded=1;fontSize=14;fontStyle=0;strokeWidth=2;resizeParent=0;resizeLast=1;shadow=0;dashed=0;align=center;arcSize=4;whiteSpace=wrap;html=1;" vertex="1" parent="1">
          <mxGeometry x="-299" y="633" width="110" height="70" as="geometry" />
        </mxCell>
        <mxCell id="gKnCj68wepEUVezHaxVO-43" style="edgeStyle=orthogonalEdgeStyle;rounded=0;orthogonalLoop=1;jettySize=auto;html=1;exitX=0.5;exitY=0;exitDx=0;exitDy=0;entryX=0.5;entryY=1;entryDx=0;entryDy=0;" edge="1" parent="1" source="gKnCj68wepEUVezHaxVO-24" target="gKnCj68wepEUVezHaxVO-8">
          <mxGeometry relative="1" as="geometry" />
        </mxCell>
        <mxCell id="gKnCj68wepEUVezHaxVO-54" style="edgeStyle=orthogonalEdgeStyle;rounded=0;orthogonalLoop=1;jettySize=auto;html=1;exitX=0.5;exitY=1;exitDx=0;exitDy=0;entryX=0.5;entryY=1;entryDx=0;entryDy=0;" edge="1" parent="1" source="gKnCj68wepEUVezHaxVO-24" target="gKnCj68wepEUVezHaxVO-37">
          <mxGeometry relative="1" as="geometry">
            <Array as="points">
              <mxPoint x="36" y="733" />
              <mxPoint x="-400" y="733" />
            </Array>
          </mxGeometry>
        </mxCell>
        <mxCell id="gKnCj68wepEUVezHaxVO-24" value="Litre" style="swimlane;childLayout=stackLayout;horizontal=1;startSize=30;horizontalStack=0;rounded=1;fontSize=14;fontStyle=0;strokeWidth=2;resizeParent=0;resizeLast=1;shadow=0;dashed=0;align=center;arcSize=4;whiteSpace=wrap;html=1;" vertex="1" parent="1">
          <mxGeometry x="-19" y="634" width="110" height="70" as="geometry" />
        </mxCell>
        <mxCell id="gKnCj68wepEUVezHaxVO-45" style="edgeStyle=orthogonalEdgeStyle;rounded=0;orthogonalLoop=1;jettySize=auto;html=1;exitX=0.5;exitY=0;exitDx=0;exitDy=0;entryX=0.5;entryY=1;entryDx=0;entryDy=0;" edge="1" parent="1" source="gKnCj68wepEUVezHaxVO-25" target="gKnCj68wepEUVezHaxVO-8">
          <mxGeometry relative="1" as="geometry" />
        </mxCell>
        <mxCell id="gKnCj68wepEUVezHaxVO-25" value="Teaspoon" style="swimlane;childLayout=stackLayout;horizontal=1;startSize=30;horizontalStack=0;rounded=1;fontSize=14;fontStyle=0;strokeWidth=2;resizeParent=0;resizeLast=1;shadow=0;dashed=0;align=center;arcSize=4;whiteSpace=wrap;html=1;" vertex="1" parent="1">
          <mxGeometry x="110" y="634" width="110" height="70" as="geometry" />
        </mxCell>
        <mxCell id="gKnCj68wepEUVezHaxVO-46" style="edgeStyle=orthogonalEdgeStyle;rounded=0;orthogonalLoop=1;jettySize=auto;html=1;exitX=0.5;exitY=0;exitDx=0;exitDy=0;entryX=0.5;entryY=1;entryDx=0;entryDy=0;" edge="1" parent="1" source="gKnCj68wepEUVezHaxVO-26" target="gKnCj68wepEUVezHaxVO-12">
          <mxGeometry relative="1" as="geometry" />
        </mxCell>
        <mxCell id="gKnCj68wepEUVezHaxVO-26" value="Piece" style="swimlane;childLayout=stackLayout;horizontal=1;startSize=30;horizontalStack=0;rounded=1;fontSize=14;fontStyle=0;strokeWidth=2;resizeParent=0;resizeLast=1;shadow=0;dashed=0;align=center;arcSize=4;whiteSpace=wrap;html=1;" vertex="1" parent="1">
          <mxGeometry x="326" y="634" width="110" height="70" as="geometry" />
        </mxCell>
        <mxCell id="gKnCj68wepEUVezHaxVO-34" value="&amp;lt;&amp;lt;IBaseConvertible&amp;gt;&amp;gt;" style="swimlane;childLayout=stackLayout;horizontal=1;startSize=50;horizontalStack=0;rounded=1;fontSize=14;fontStyle=0;strokeWidth=2;resizeParent=0;resizeLast=1;shadow=0;dashed=0;align=center;arcSize=4;whiteSpace=wrap;html=1;" vertex="1" parent="1">
          <mxGeometry x="-149" y="320" width="160" height="100" as="geometry" />
        </mxCell>
        <mxCell id="gKnCj68wepEUVezHaxVO-37" value="&amp;lt;&amp;lt;IBaseUnit&amp;gt;&amp;gt;" style="swimlane;childLayout=stackLayout;horizontal=1;startSize=50;horizontalStack=0;rounded=1;fontSize=14;fontStyle=0;strokeWidth=2;resizeParent=0;resizeLast=1;shadow=0;dashed=0;align=center;arcSize=4;whiteSpace=wrap;html=1;" vertex="1" parent="1">
          <mxGeometry x="-480" y="483" width="160" height="100" as="geometry" />
        </mxCell>
        <mxCell id="gKnCj68wepEUVezHaxVO-51" style="edgeStyle=orthogonalEdgeStyle;rounded=0;orthogonalLoop=1;jettySize=auto;html=1;exitX=1;exitY=0.5;exitDx=0;exitDy=0;entryX=0.5;entryY=1;entryDx=0;entryDy=0;" edge="1" parent="1" source="gKnCj68wepEUVezHaxVO-11" target="gKnCj68wepEUVezHaxVO-34">
          <mxGeometry relative="1" as="geometry" />
        </mxCell>
        <mxCell id="gKnCj68wepEUVezHaxVO-55" value="&lt;span style=&quot;text-align: left;&quot;&gt;Units Requirements:-&lt;/span&gt;&lt;div style=&quot;text-align: left;&quot;&gt;&lt;ol&gt;&lt;li&gt;We can easily convert between different Units for measuring (P1)&lt;/li&gt;&lt;li&gt;Differnts possible units of measuring cooking Ingredients can be gram, kg, Teaspoon, Tablespoon, Piece, ml, Litre (P1)&lt;/li&gt;&lt;li&gt;should help in easily calculating nutrients of any dish (P2)&lt;/li&gt;&lt;/ol&gt;&lt;/div&gt;" style="shape=note2;boundedLbl=1;whiteSpace=wrap;html=1;size=25;verticalAlign=top;align=center;" vertex="1" parent="1">
          <mxGeometry x="-377" y="80" width="690" height="110" as="geometry" />
        </mxCell>
      </root>
    </mxGraphModel>
  </diagram>
</mxfile>
